<?xml version="1.0" encoding="UTF-8"?>
<svg xmlns="http://www.w3.org/2000/svg" width="960" height="388" viewBox="0 0 960 388" role="img">
  <title>Pipeline mapped to weeks</title>
  <desc>Stages mapped to curriculum weeks</desc>
  <defs>
    <pattern id="dots" width="16" height="16" patternUnits="userSpaceOnUse">
      <circle cx="1" cy="1" r="1" fill="#0f172a" opacity="0.05"/>
    </pattern>
    <filter id="soft" x="-20%" y="-20%" width="140%" height="140%">
      <feDropShadow dx="0" dy="3" stdDeviation="4" flood-color="#0f172a" flood-opacity="0.10"/>
    </filter>
    <linearGradient id="rail" x1="0" y1="0" x2="1" y2="0">
      <stop offset="0%" stop-color="#0d9488"/>
      <stop offset="20%" stop-color="#2563eb"/>
      <stop offset="40%" stop-color="#d97706"/>
      <stop offset="55%" stop-color="#e11d48"/>
      <stop offset="70%" stop-color="#0891b2"/>
      <stop offset="85%" stop-color="#9333ea"/>
      <stop offset="100%" stop-color="#4f46e5"/>
    </linearGradient>
    <marker id="arrowHead" markerWidth="8" markerHeight="8" refX="6" refY="3" orient="auto">
      <path d="M0,0 L6,3 L0,6 Z" fill="#94a3b8"/>
    </marker>
  </defs>
  <rect width="960" height="388" rx="18" fill="#eef3f9"/>
  <rect width="960" height="388" rx="18" fill="url(#dots)"/>

<text x="32" y="40" font-family="IBM Plex Sans, Segoe UI, Helvetica, Arial, sans-serif" font-size="20" font-weight="700" fill="#0f172a">Map pipeline ↔ tuần</text>
<text x="32" y="62" font-family="IBM Plex Sans, Segoe UI, Helvetica, Arial, sans-serif" font-size="12" font-weight="500" fill="#64748b">Cùng một hành trình, hai khung nhìn song song</text>
<text x="52" y="94" font-family="IBM Plex Sans, Segoe UI, Helvetica, Arial, sans-serif" font-size="11" font-weight="700" fill="#64748b">STAGE</text>
<text x="700" y="94" font-family="IBM Plex Sans, Segoe UI, Helvetica, Arial, sans-serif" font-size="11" font-weight="700" fill="#64748b">TUẦN NEO</text>
<rect x="32" y="110" width="560" height="34" rx="10" fill="#ffffff" stroke="#dbe3ee"/>
<rect x="32" y="110" width="8" height="34" rx="4" fill="#0d9488"/>
<text x="52" y="132" font-family="IBM Plex Sans, Segoe UI, Helvetica, Arial, sans-serif" font-size="13" font-weight="600" fill="#0f172a">Data / Token / Model</text>
<line x1="600" y1="127" x2="650" y2="127" stroke="#0d9488" stroke-width="2" stroke-dasharray="5 4"/>
<circle cx="625" cy="127" r="3.5" fill="#0d9488"/>
<rect x="650" y="110" width="278" height="34" rx="10" fill="#0d9488"/>
<text x="789" y="132" text-anchor="middle" font-family="IBM Plex Sans, Segoe UI, Helvetica, Arial, sans-serif" font-size="13" font-weight="700" fill="#fff">W1–W4</text>
<rect x="32" y="110" width="896" height="34" rx="10" fill="#0d9488" opacity="0"><animate attributeName="opacity" values="0;0.08;0" dur="5.5s" begin="0.0s" repeatCount="indefinite"/></rect>
<rect x="32" y="148" width="560" height="34" rx="10" fill="#ffffff" stroke="#dbe3ee"/>
<rect x="32" y="148" width="8" height="34" rx="4" fill="#d97706"/>
<text x="52" y="170" font-family="IBM Plex Sans, Segoe UI, Helvetica, Arial, sans-serif" font-size="13" font-weight="600" fill="#0f172a">Pretrain</text>
<line x1="600" y1="165" x2="650" y2="165" stroke="#d97706" stroke-width="2" stroke-dasharray="5 4"/>
<circle cx="625" cy="165" r="3.5" fill="#d97706"/>
<rect x="650" y="148" width="278" height="34" rx="10" fill="#d97706"/>
<text x="789" y="170" text-anchor="middle" font-family="IBM Plex Sans, Segoe UI, Helvetica, Arial, sans-serif" font-size="13" font-weight="700" fill="#fff">W5</text>
<rect x="32" y="148" width="896" height="34" rx="10" fill="#d97706" opacity="0"><animate attributeName="opacity" values="0;0.08;0" dur="5.5s" begin="0.4s" repeatCount="indefinite"/></rect>
<rect x="32" y="186" width="560" height="34" rx="10" fill="#ffffff" stroke="#dbe3ee"/>
<rect x="32" y="186" width="8" height="34" rx="4" fill="#e11d48"/>
<text x="52" y="208" font-family="IBM Plex Sans, Segoe UI, Helvetica, Arial, sans-serif" font-size="13" font-weight="600" fill="#0f172a">Align (SFT → RM → DPO/PPO → GRPO)</text>
<line x1="600" y1="203" x2="650" y2="203" stroke="#e11d48" stroke-width="2" stroke-dasharray="5 4"/>
<circle cx="625" cy="203" r="3.5" fill="#e11d48"/>
<rect x="650" y="186" width="278" height="34" rx="10" fill="#e11d48"/>
<text x="789" y="208" text-anchor="middle" font-family="IBM Plex Sans, Segoe UI, Helvetica, Arial, sans-serif" font-size="13" font-weight="700" fill="#fff">W6–W7</text>
<rect x="32" y="186" width="896" height="34" rx="10" fill="#e11d48" opacity="0"><animate attributeName="opacity" values="0;0.08;0" dur="5.5s" begin="0.8s" repeatCount="indefinite"/></rect>
<rect x="32" y="224" width="560" height="34" rx="10" fill="#ffffff" stroke="#dbe3ee"/>
<rect x="32" y="224" width="8" height="34" rx="4" fill="#16a34a"/>
<text x="52" y="246" font-family="IBM Plex Sans, Segoe UI, Helvetica, Arial, sans-serif" font-size="13" font-weight="600" fill="#0f172a">Eval / Serve</text>
<line x1="600" y1="241" x2="650" y2="241" stroke="#16a34a" stroke-width="2" stroke-dasharray="5 4"/>
<circle cx="625" cy="241" r="3.5" fill="#16a34a"/>
<rect x="650" y="224" width="278" height="34" rx="10" fill="#16a34a"/>
<text x="789" y="246" text-anchor="middle" font-family="IBM Plex Sans, Segoe UI, Helvetica, Arial, sans-serif" font-size="13" font-weight="700" fill="#fff">W5, W8–W9</text>
<rect x="32" y="224" width="896" height="34" rx="10" fill="#16a34a" opacity="0"><animate attributeName="opacity" values="0;0.08;0" dur="5.5s" begin="1.2s" repeatCount="indefinite"/></rect>
<rect x="32" y="262" width="560" height="34" rx="10" fill="#ffffff" stroke="#dbe3ee"/>
<rect x="32" y="262" width="8" height="34" rx="4" fill="#0891b2"/>
<text x="52" y="284" font-family="IBM Plex Sans, Segoe UI, Helvetica, Arial, sans-serif" font-size="13" font-weight="600" fill="#0f172a">RAG</text>
<line x1="600" y1="279" x2="650" y2="279" stroke="#0891b2" stroke-width="2" stroke-dasharray="5 4"/>
<circle cx="625" cy="279" r="3.5" fill="#0891b2"/>
<rect x="650" y="262" width="278" height="34" rx="10" fill="#0891b2"/>
<text x="789" y="284" text-anchor="middle" font-family="IBM Plex Sans, Segoe UI, Helvetica, Arial, sans-serif" font-size="13" font-weight="700" fill="#fff">W10–W11</text>
<rect x="32" y="262" width="896" height="34" rx="10" fill="#0891b2" opacity="0"><animate attributeName="opacity" values="0;0.08;0" dur="5.5s" begin="1.6s" repeatCount="indefinite"/></rect>
<rect x="32" y="300" width="560" height="34" rx="10" fill="#ffffff" stroke="#dbe3ee"/>
<rect x="32" y="300" width="8" height="34" rx="4" fill="#9333ea"/>
<text x="52" y="322" font-family="IBM Plex Sans, Segoe UI, Helvetica, Arial, sans-serif" font-size="13" font-weight="600" fill="#0f172a">Agent</text>
<line x1="600" y1="317" x2="650" y2="317" stroke="#9333ea" stroke-width="2" stroke-dasharray="5 4"/>
<circle cx="625" cy="317" r="3.5" fill="#9333ea"/>
<rect x="650" y="300" width="278" height="34" rx="10" fill="#9333ea"/>
<text x="789" y="322" text-anchor="middle" font-family="IBM Plex Sans, Segoe UI, Helvetica, Arial, sans-serif" font-size="13" font-weight="700" fill="#fff">W12–W13</text>
<rect x="32" y="300" width="896" height="34" rx="10" fill="#9333ea" opacity="0"><animate attributeName="opacity" values="0;0.08;0" dur="5.5s" begin="2.0s" repeatCount="indefinite"/></rect>
<rect x="32" y="338" width="560" height="34" rx="10" fill="#ffffff" stroke="#dbe3ee"/>
<rect x="32" y="338" width="8" height="34" rx="4" fill="#4f46e5"/>
<text x="52" y="360" font-family="IBM Plex Sans, Segoe UI, Helvetica, Arial, sans-serif" font-size="13" font-weight="600" fill="#0f172a">Graph</text>
<line x1="600" y1="355" x2="650" y2="355" stroke="#4f46e5" stroke-width="2" stroke-dasharray="5 4"/>
<circle cx="625" cy="355" r="3.5" fill="#4f46e5"/>
<rect x="650" y="338" width="278" height="34" rx="10" fill="#4f46e5"/>
<text x="789" y="360" text-anchor="middle" font-family="IBM Plex Sans, Segoe UI, Helvetica, Arial, sans-serif" font-size="13" font-weight="700" fill="#fff">W14–W15</text>
<rect x="32" y="338" width="896" height="34" rx="10" fill="#4f46e5" opacity="0"><animate attributeName="opacity" values="0;0.08;0" dur="5.5s" begin="2.4s" repeatCount="indefinite"/></rect></svg>
